<?xml version="1.0" encoding="UTF-8"?>
<svg xmlns="http://www.w3.org/2000/svg" width="256" height="256" viewBox="0 0 256 256" role="img" aria-label="ai leaf avatar">
  <defs>
    <linearGradient id="bg" x1="36" y1="24" x2="218" y2="236" gradientUnits="userSpaceOnUse">
      <stop offset="0" stop-color="#9CFF9B"/>
      <stop offset="1" stop-color="#13A86B"/>
    </linearGradient>
    <linearGradient id="shirt" x1="72" y1="160" x2="184" y2="236" gradientUnits="userSpaceOnUse">
      <stop offset="0" stop-color="#3AF0A4"/>
      <stop offset="1" stop-color="#12835A"/>
    </linearGradient>
  </defs>
  <circle cx="128" cy="128" r="118" fill="url(#bg)"/>
  <circle cx="128" cy="128" r="110" fill="none" stroke="#FFFFFF" stroke-width="8" opacity=".86"/>
  <path d="M56 228c13-43 39-66 72-66s59 23 72 66" fill="url(#shirt)"/>
  <circle cx="128" cy="116" r="52" fill="#FFD9BD"/>
  <path d="M76 112c3-43 35-66 72-62 29 3 49 24 53 57-24-1-44-10-60-27-16 17-38 28-65 32z" fill="#352118"/>
  <path d="M99 118c6-5 13-5 19 0" stroke="#273041" stroke-width="6" stroke-linecap="round"/>
  <path d="M139 118c6-5 13-5 19 0" stroke="#273041" stroke-width="6" stroke-linecap="round"/>
  <path d="M113 145c10 8 22 8 32 0" fill="none" stroke="#A93D3D" stroke-width="7" stroke-linecap="round"/>
  <path d="M166 52c24 5 34 27 24 50-25-2-39-19-24-50z" fill="#D7FF66" opacity=".8"/>
</svg>
