<?xml version="1.0" encoding="UTF-8"?>
<svg xmlns="http://www.w3.org/2000/svg" width="256" height="256" viewBox="0 0 256 256" role="img" aria-label="ai spark avatar">
  <defs>
    <linearGradient id="bg" x1="42" y1="20" x2="214" y2="236" gradientUnits="userSpaceOnUse">
      <stop offset="0" stop-color="#FFE26E"/>
      <stop offset="1" stop-color="#FF8B33"/>
    </linearGradient>
    <linearGradient id="hood" x1="70" y1="150" x2="186" y2="236" gradientUnits="userSpaceOnUse">
      <stop offset="0" stop-color="#FFD84D"/>
      <stop offset="1" stop-color="#E89B17"/>
    </linearGradient>
  </defs>
  <circle cx="128" cy="128" r="118" fill="url(#bg)"/>
  <circle cx="128" cy="128" r="110" fill="none" stroke="#FFFFFF" stroke-width="8" opacity=".86"/>
  <path d="M57 228c12-48 39-73 71-73s59 25 71 73" fill="url(#hood)"/>
  <circle cx="128" cy="114" r="51" fill="#FFD5B5"/>
  <path d="M77 108c7-47 39-68 80-58 23 5 38 24 41 55-22-4-42-15-57-35-15 22-36 34-64 38z" fill="#3C271E"/>
  <path d="M102 119c5-6 12-6 17 0" stroke="#2E2631" stroke-width="6" stroke-linecap="round"/>
  <path d="M139 119c5-6 12-6 17 0" stroke="#2E2631" stroke-width="6" stroke-linecap="round"/>
  <path d="M111 144c12 8 24 8 36 0" fill="none" stroke="#B34845" stroke-width="7" stroke-linecap="round"/>
  <path d="M68 77l14-30 14 30 30 14-30 14-14 30-14-30-30-14z" fill="#FFFFFF" opacity=".35"/>
</svg>
