<?xml version="1.0" encoding="UTF-8"?>
<svg xmlns="http://www.w3.org/2000/svg" width="256" height="256" viewBox="0 0 256 256" role="img" aria-label="ai wave avatar">
  <defs>
    <linearGradient id="bg" x1="38" y1="18" x2="216" y2="236" gradientUnits="userSpaceOnUse">
      <stop offset="0" stop-color="#8FC7FF"/>
      <stop offset="1" stop-color="#2B3EEA"/>
    </linearGradient>
    <linearGradient id="shirt" x1="70" y1="160" x2="186" y2="236" gradientUnits="userSpaceOnUse">
      <stop offset="0" stop-color="#5CB6FF"/>
      <stop offset="1" stop-color="#2843C4"/>
    </linearGradient>
  </defs>
  <circle cx="128" cy="128" r="118" fill="url(#bg)"/>
  <circle cx="128" cy="128" r="110" fill="none" stroke="#FFFFFF" stroke-width="8" opacity=".86"/>
  <path d="M55 228c14-45 41-68 73-68s59 23 73 68" fill="url(#shirt)"/>
  <circle cx="128" cy="116" r="52" fill="#FFD3B2"/>
  <path d="M76 110c5-45 36-69 74-62 28 5 46 25 49 57-20-2-35-9-48-22-19 18-44 27-75 27z" fill="#221D2B"/>
  <circle cx="108" cy="120" r="7" fill="#20283B"/>
  <circle cx="148" cy="120" r="7" fill="#20283B"/>
  <path d="M110 146c11 9 25 9 36 0" fill="none" stroke="#A74344" stroke-width="7" stroke-linecap="round"/>
  <path d="M54 78c20 10 39 10 58 0s38-10 58 0" fill="none" stroke="#FFFFFF" stroke-width="10" stroke-linecap="round" opacity=".35"/>
</svg>
