<?xml version="1.0" encoding="UTF-8"?>
<svg xmlns="http://www.w3.org/2000/svg" width="220" height="150" viewBox="0 0 220 150" role="img" aria-label="call u bubble">
  <path d="M34 18h152c18 0 28 11 28 27v45c0 17-11 28-28 28h-62l-32 24 8-24H34C17 118 6 107 6 90V45c0-16 10-27 28-27z" fill="#FFFFFF"/>
  <path d="M34 18h152c18 0 28 11 28 27v45c0 17-11 28-28 28h-62l-32 24 8-24H34C17 118 6 107 6 90V45c0-16 10-27 28-27z" fill="none" stroke="#32D6FF" stroke-width="8"/>
  <text x="110" y="88" text-anchor="middle" font-family="Arial, sans-serif" font-size="68" font-weight="900" fill="#123A70">U!</text>
</svg>
