<?xml version="1.0" encoding="UTF-8"?>
<svg xmlns="http://www.w3.org/2000/svg" width="160" height="224" viewBox="0 0 160 224" role="img" aria-label="color lock special card">
  <rect x="4" y="4" width="152" height="216" rx="18" fill="#FFFFFF" stroke="#D9DEE8" stroke-width="4"/>
  <rect x="14" y="14" width="132" height="196" rx="14" fill="#172541"/>
  <circle cx="80" cy="95" r="44" fill="#2F7BEA"/>
  <path d="M80 95L80 51A44 44 0 0 1 124 95z" fill="#E84B4B"/>
  <path d="M80 95H124A44 44 0 0 1 80 139z" fill="#44B96A"/>
  <path d="M80 95V139A44 44 0 0 1 36 95z" fill="#F5C744"/>
  <rect x="47" y="102" width="66" height="50" rx="8" fill="#FFFFFF"/>
  <path d="M62 102V86c0-12 8-21 18-21s18 9 18 21v16" fill="none" stroke="#FFFFFF" stroke-width="12" stroke-linecap="round"/>
  <circle cx="80" cy="127" r="7" fill="#172541"/>
  <text x="24" y="46" font-family="Arial, sans-serif" font-size="24" font-weight="800" fill="#FFFFFF">锁</text>
  <text x="136" y="194" text-anchor="end" font-family="Arial, sans-serif" font-size="24" font-weight="800" fill="#FFFFFF">色</text>
</svg>
